<svg width="51" height="50" viewBox="0 0 51 50" fill="none" xmlns="http://www.w3.org/2000/svg">
<g clip-path="url(#clip0_17_963)">
<path d="M0.900391 3.73047C0.636719 3.33984 0.5 2.87109 0.5 2.40234C0.5 1.07422 1.57422 0 2.90234 0H13.5762C14.6699 0 15.6953 0.576172 16.252 1.51367L22.9414 12.6563C18.2344 13.252 14.0254 15.4492 10.8906 18.7012L0.900391 3.73047ZM50.0898 3.73047L40.1094 18.7012C36.9746 15.4492 32.7656 13.252 28.0586 12.6563L34.748 1.51367C35.3145 0.576172 36.3301 0 37.4238 0H48.0977C49.4258 0 50.5 1.07422 50.5 2.40234C50.5 2.87109 50.3633 3.33984 50.0996 3.73047H50.0898ZM8.3125 32.8125C8.3125 28.2541 10.1233 23.8824 13.3466 20.6591C16.5699 17.4358 20.9416 15.625 25.5 15.625C30.0584 15.625 34.4301 17.4358 37.6534 20.6591C40.8767 23.8824 42.6875 28.2541 42.6875 32.8125C42.6875 37.3709 40.8767 41.7426 37.6534 44.9659C34.4301 48.1892 30.0584 50 25.5 50C20.9416 50 16.5699 48.1892 13.3466 44.9659C10.1233 41.7426 8.3125 37.3709 8.3125 32.8125ZM26.3203 23.5449C25.9883 22.8613 25.0215 22.8613 24.6797 23.5449L22.4922 27.9785C22.3555 28.252 22.1016 28.4375 21.8086 28.4766L16.9062 29.1895C16.1543 29.2969 15.8613 30.2148 16.3984 30.752L19.9434 34.209C20.1582 34.4238 20.2559 34.7168 20.207 35.0195L19.3672 39.8926C19.2402 40.6348 20.0215 41.2109 20.6953 40.8594L25.0703 38.5547C25.334 38.418 25.6562 38.418 25.9199 38.5547L30.2949 40.8594C30.9688 41.2109 31.75 40.6445 31.623 39.8926L30.7832 35.0195C30.7344 34.7266 30.832 34.4238 31.0469 34.209L34.5918 30.752C35.1387 30.2246 34.8359 29.3066 34.084 29.1895L29.1914 28.4766C28.8984 28.4375 28.6348 28.2422 28.5078 27.9785L26.3203 23.5449Z" fill="#005BAA"/>
</g>
<defs>
<clipPath id="clip0_17_963">
<rect width="50" height="50" fill="white" transform="translate(0.5)"/>
</clipPath>
</defs>
</svg>
