<svg width="24" height="28" viewBox="0 0 24 28" fill="none" xmlns="http://www.w3.org/2000/svg">
<g clip-path="url(#clip0_17_918)">
<path d="M18.7179 2.43907C19.034 1.68985 18.7983 0.81485 18.1501 0.3336C17.5019 -0.14765 16.6179 -0.1039 16.0126 0.432038L2.29831 12.682C1.76259 13.1633 1.56974 13.9344 1.82152 14.6125C2.07331 15.2906 2.71616 15.75 3.42866 15.75H9.40188L5.28224 25.5609C4.96616 26.3102 5.20188 27.1852 5.85009 27.6664C6.49831 28.1477 7.38224 28.1039 7.98759 27.568L21.7019 15.318C22.2376 14.8367 22.4305 14.0656 22.1787 13.3875C21.9269 12.7094 21.2894 12.2555 20.5715 12.2555H14.5983L18.7179 2.43907Z" fill="#F27028"/>
</g>
<defs>
<clipPath id="clip0_17_918">
<rect width="24" height="28" fill="white"/>
</clipPath>
</defs>
</svg>
