<svg width="57" height="50" viewBox="0 0 57 50" fill="none" xmlns="http://www.w3.org/2000/svg">
<g clip-path="url(#clip0_17_978)">
<path d="M39.5833 0H17.4167C14.7943 0 12.6568 2.12891 12.7557 4.70703C12.7755 5.22461 12.7953 5.74219 12.825 6.25H2.375C1.05885 6.25 0 7.29492 0 8.59375C0 17.6367 3.3151 23.9258 7.76823 28.1934C12.1521 32.4023 17.4958 34.5215 21.4344 35.5957C23.75 36.2305 25.3333 38.1348 25.3333 40.0488C25.3333 42.0898 23.651 43.75 21.5828 43.75H19C17.2484 43.75 15.8333 45.1465 15.8333 46.875C15.8333 48.6035 17.2484 50 19 50H38C39.7516 50 41.1667 48.6035 41.1667 46.875C41.1667 45.1465 39.7516 43.75 38 43.75H35.4172C33.349 43.75 31.6667 42.0898 31.6667 40.0488C31.6667 38.1348 33.2401 36.2207 35.5656 35.5957C39.5141 34.5215 44.8578 32.4023 49.2417 28.1934C53.6849 23.9258 57 17.6367 57 8.59375C57 7.29492 55.9411 6.25 54.625 6.25H44.175C44.2047 5.74219 44.2245 5.23438 44.2443 4.70703C44.3432 2.12891 42.2057 0 39.5833 0ZM4.83906 10.9375H13.1911C14.0917 19.7363 16.0807 25.6152 18.3271 29.5508C15.863 28.4766 13.3 26.9629 11.0833 24.834C7.91667 21.7969 5.34375 17.4121 4.84896 10.9375H4.83906ZM45.9266 24.834C43.7099 26.9629 41.1469 28.4766 38.6828 29.5508C40.9292 25.6152 42.9182 19.7363 43.8187 10.9375H52.1708C51.6661 17.4121 49.0932 21.7969 45.9365 24.834H45.9266Z" fill="#005BAA"/>
</g>
<defs>
<clipPath id="clip0_17_978">
<rect width="57" height="50" fill="white"/>
</clipPath>
</defs>
</svg>
