<svg width="20" height="20" viewBox="0 0 20 20" fill="none" xmlns="http://www.w3.org/2000/svg">
<path d="M11.3005 14.1232C12.3045 13.9785 13.2091 13.4033 13.7717 12.5313L19.718 3.25081C20.1814 2.52722 20.0637 1.56986 19.4385 0.979858C18.8134 0.389855 17.861 0.337905 17.177 0.857405L8.47264 7.44762C7.59008 8.11555 7.06789 9.15826 7.06054 10.2715L11.3005 14.1232ZM10.5798 15.0657L6.31403 11.1917C4.11497 11.2734 2.35351 13.1027 2.35351 15.344C2.35351 15.4887 2.36087 15.6334 2.37558 15.7745C2.44177 16.4238 2.00049 17.1251 1.35327 17.1251H1.17676C0.525863 17.1251 0 17.6558 0 18.3126C0 18.9694 0.525863 19.5 1.17676 19.5H6.47216C8.74845 19.5 10.5908 17.6409 10.5908 15.344C10.5908 15.2512 10.5871 15.1585 10.5835 15.0657H10.5798Z" fill="white"/>
</svg>
