<svg width="45" height="50" viewBox="0 0 45 50" fill="none" xmlns="http://www.w3.org/2000/svg">
<path d="M22.5038 0C24.2421 0 25.6465 1.39648 25.6465 3.125V6.06445L27.1196 4.59961C28.0428 3.68164 29.5356 3.68164 30.4489 4.59961C31.3622 5.51758 31.3721 7.00195 30.4489 7.91016L25.6367 12.6953V19.5605L31.6667 16.0645L33.405 9.60938C33.7389 8.35938 35.0352 7.61719 36.2923 7.94922C37.5494 8.28125 38.2958 9.57031 37.9619 10.8203L37.4512 12.7051L39.7689 11.3574C41.2715 10.4883 43.1964 10.9961 44.0704 12.4805C44.9445 13.9648 44.4436 15.8887 42.941 16.7578L40.4563 18.2031L42.5875 18.7695C43.8445 19.1016 44.5909 20.3906 44.257 21.6406C43.9231 22.8906 42.6268 23.6328 41.3697 23.3008L34.721 21.5332L28.7401 25L34.721 28.4668L41.3697 26.6992C42.6268 26.3672 43.9231 27.1094 44.257 28.3594C44.5909 29.6094 43.8445 30.8984 42.5875 31.2305L40.4563 31.7969L42.941 33.2422C44.4436 34.1113 44.9445 36.0254 44.0704 37.5195C43.1964 39.0137 41.2715 39.5117 39.7689 38.6426L37.4512 37.2949L37.9619 39.1797C38.2958 40.4297 37.5494 41.7188 36.2923 42.0508C35.0352 42.3828 33.7389 41.6406 33.405 40.3906L31.6667 33.9355L25.6465 30.4395V37.3047L30.4587 42.0898C31.3819 43.0078 31.3819 44.4922 30.4587 45.4004C29.5356 46.3086 28.0428 46.3184 27.1294 45.4004L25.6563 43.9355V46.875C25.6563 48.6035 24.2519 50 22.5136 50C20.7754 50 19.371 48.6035 19.371 46.875V43.9355L17.8978 45.4004C16.9747 46.3184 15.4819 46.3184 14.5686 45.4004C13.6552 44.4824 13.6454 42.998 14.5686 42.0898L19.3808 37.3047V30.4395L13.3508 33.9355L11.6125 40.3906C11.2786 41.6406 9.98223 42.3828 8.72516 42.0508C7.46809 41.7188 6.72171 40.4297 7.05562 39.1797L7.5663 37.2949L5.22894 38.6328C3.72634 39.502 1.80146 38.9941 0.927401 37.5098C0.0533443 36.0254 0.564029 34.1016 2.0568 33.2324L4.54148 31.7871L2.41035 31.2207C1.15328 30.8887 0.406895 29.5996 0.740804 28.3496C1.07471 27.0996 2.37107 26.3574 3.62814 26.6895L10.2769 28.457L16.2676 25L10.2867 21.5332L3.63796 23.3008C2.38089 23.6328 1.08453 22.8906 0.750625 21.6406C0.416716 20.3906 1.1631 19.1016 2.42017 18.7695L4.5513 18.2031L2.06662 16.7578C0.564029 15.8887 0.0631652 13.9746 0.937221 12.4902C1.81128 11.0059 3.73617 10.498 5.23876 11.3672L7.55648 12.7148L7.04579 10.8301C6.71189 9.58008 7.45827 8.29102 8.71534 7.95898C9.97241 7.62695 11.2688 8.36914 11.6027 9.61914L13.341 16.0742L19.3611 19.5605V12.6953L14.5489 7.91016C13.6258 6.99219 13.6258 5.50781 14.5489 4.59961C15.4721 3.69141 16.9649 3.68164 17.8782 4.59961L19.3513 6.06445L19.3611 3.125C19.3611 1.39648 20.7655 0 22.5038 0Z" fill="#005BAA"/>
</svg>
