<svg width="24" height="20" viewBox="0 0 24 20" fill="none" xmlns="http://www.w3.org/2000/svg">
<path d="M14.4251 1.6875H19.234C19.8989 1.6875 20.4362 2.21816 20.4362 2.875C20.4362 3.53184 19.8989 4.0625 19.234 4.0625H14.9661C14.7707 5.01992 14.1058 5.81035 13.2229 6.18887V17.125H19.234C19.8989 17.125 20.4362 17.6557 20.4362 18.3125C20.4362 18.9693 19.8989 19.5 19.234 19.5H12.0207H4.80737C4.14239 19.5 3.60515 18.9693 3.60515 18.3125C3.60515 17.6557 4.14239 17.125 4.80737 17.125H10.8184V6.18887C9.93557 5.80664 9.27059 5.01621 9.07523 4.0625H4.80737C4.14239 4.0625 3.60515 3.53184 3.60515 2.875C3.60515 2.21816 4.14239 1.6875 4.80737 1.6875H9.61623C10.1647 0.967578 11.0363 0.5 12.0207 0.5C13.005 0.5 13.8766 0.967578 14.4251 1.6875ZM16.5139 12.375H21.9577L19.234 7.76602L16.5139 12.375ZM19.234 15.9375C16.8709 15.9375 14.906 14.6758 14.5002 13.0096C14.4026 12.6014 14.5378 12.182 14.7519 11.8184L18.3285 5.76211C18.5164 5.44297 18.862 5.25 19.234 5.25C19.6059 5.25 19.9515 5.44668 20.1394 5.76211L23.716 11.8184C23.9301 12.182 24.0654 12.6014 23.9677 13.0096C23.5619 14.6758 21.5971 15.9375 19.234 15.9375ZM4.76228 7.76602L2.04227 12.375H7.48605L4.76228 7.76602ZM0.0323141 13.0096C-0.065366 12.6014 0.0698833 12.182 0.284028 11.8184L3.86062 5.76211C4.04847 5.44297 4.3941 5.25 4.76604 5.25C5.13798 5.25 5.48361 5.44668 5.67146 5.76211L9.24805 11.8184C9.4622 12.182 9.59744 12.6014 9.49976 13.0096C9.09026 14.6758 7.12539 15.9375 4.76228 15.9375C2.39918 15.9375 0.438062 14.6758 0.0323141 13.0096Z" fill="white"/>
</svg>
