<svg width="24" height="14" viewBox="0 0 24 14" fill="none" xmlns="http://www.w3.org/2000/svg">
<path d="M12.1275 0.772991L8.4975 3.6316C7.89375 4.1056 7.7775 4.95881 8.235 5.56772C8.71875 6.21674 9.66 6.34436 10.3088 5.85213L14.0325 3.03727C14.295 2.84038 14.67 2.88413 14.8763 3.13936C15.0825 3.3946 15.0338 3.75922 14.7713 3.95976L13.9875 4.55044L19.2 9.21755V2.33356H19.1737L19.0275 2.2424L16.305 0.546928C15.7312 0.189602 15.06 0 14.3775 0C13.56 0 12.765 0.273464 12.1275 0.772991ZM12.9825 5.30884L11.0438 6.77461C9.8625 7.67157 8.14875 7.43822 7.26375 6.25685C6.43125 5.14477 6.64125 3.59149 7.74 2.72735L10.86 0.273464C10.425 0.0948008 9.95625 0.00364613 9.48 0.00364613C8.775 -5.56907e-08 8.08875 0.204186 7.5 0.583389L4.8 2.33356V10.501H5.8575L9.285 13.5419C10.02 14.1946 11.1562 14.1435 11.8275 13.4289C12.0338 13.2065 12.1725 12.9476 12.2438 12.6778L12.8813 13.2466C13.6125 13.8993 14.7525 13.8519 15.4237 13.1408C15.5925 12.9622 15.7163 12.7544 15.795 12.5392C16.5225 13.0132 17.5125 12.9148 18.1238 12.2658C18.795 11.5548 18.7463 10.4463 18.015 9.79365L12.9825 5.30884ZM0.6 2.33356C0.27 2.33356 0 2.59608 0 2.91695V10.501C0 11.1464 0.53625 11.6678 1.2 11.6678H2.4C3.06375 11.6678 3.6 11.1464 3.6 10.501V2.33356H0.6ZM1.8 9.33423C1.95913 9.33423 2.11174 9.39569 2.22426 9.5051C2.33679 9.61451 2.4 9.7629 2.4 9.91762C2.4 10.0723 2.33679 10.2207 2.22426 10.3301C2.11174 10.4395 1.95913 10.501 1.8 10.501C1.64087 10.501 1.48826 10.4395 1.37574 10.3301C1.26321 10.2207 1.2 10.0723 1.2 9.91762C1.2 9.7629 1.26321 9.61451 1.37574 9.5051C1.48826 9.39569 1.64087 9.33423 1.8 9.33423ZM20.4 2.33356V10.501C20.4 11.1464 20.9363 11.6678 21.6 11.6678H22.8C23.4638 11.6678 24 11.1464 24 10.501V2.91695C24 2.59608 23.73 2.33356 23.4 2.33356H20.4ZM21.6 9.91762C21.6 9.7629 21.6632 9.61451 21.7757 9.5051C21.8883 9.39569 22.0409 9.33423 22.2 9.33423C22.3591 9.33423 22.5117 9.39569 22.6243 9.5051C22.7368 9.61451 22.8 9.7629 22.8 9.91762C22.8 10.0723 22.7368 10.2207 22.6243 10.3301C22.5117 10.4395 22.3591 10.501 22.2 10.501C22.0409 10.501 21.8883 10.4395 21.7757 10.3301C21.6632 10.2207 21.6 10.0723 21.6 9.91762Z" fill="white"/>
</svg>
