<svg width="57" height="50" viewBox="0 0 57 50" fill="none" xmlns="http://www.w3.org/2000/svg">
<path d="M20.5833 7.8125C20.5833 5.22461 22.7109 3.125 25.3333 3.125H31.6667C34.2891 3.125 36.4167 5.22461 36.4167 7.8125V14.0625C36.4167 16.6504 34.2891 18.75 31.6667 18.75H30.875V22.6562H45.9167C48.9745 22.6562 51.4583 25.1074 51.4583 28.125V31.25H52.25C54.8724 31.25 57 33.3496 57 35.9375V42.1875C57 44.7754 54.8724 46.875 52.25 46.875H45.9167C43.2943 46.875 41.1667 44.7754 41.1667 42.1875V35.9375C41.1667 33.3496 43.2943 31.25 45.9167 31.25H46.7083V28.125C46.7083 27.6953 46.3521 27.3438 45.9167 27.3438H30.875V31.25H31.6667C34.2891 31.25 36.4167 33.3496 36.4167 35.9375V42.1875C36.4167 44.7754 34.2891 46.875 31.6667 46.875H25.3333C22.7109 46.875 20.5833 44.7754 20.5833 42.1875V35.9375C20.5833 33.3496 22.7109 31.25 25.3333 31.25H26.125V27.3438H11.0833C10.6479 27.3438 10.2917 27.6953 10.2917 28.125V31.25H11.0833C13.7057 31.25 15.8333 33.3496 15.8333 35.9375V42.1875C15.8333 44.7754 13.7057 46.875 11.0833 46.875H4.75C2.1276 46.875 0 44.7754 0 42.1875V35.9375C0 33.3496 2.1276 31.25 4.75 31.25H5.54167V28.125C5.54167 25.1074 8.02552 22.6562 11.0833 22.6562H26.125V18.75H25.3333C22.7109 18.75 20.5833 16.6504 20.5833 14.0625V7.8125Z" fill="#005BAA"/>
</svg>
