<svg width="63" height="50" viewBox="0 0 63 50" fill="none" xmlns="http://www.w3.org/2000/svg">
<g clip-path="url(#clip0_17_974)">
<path d="M4.25881 0.498107C3.25131 -0.302674 1.78849 -0.117127 0.994119 0.898498C0.199744 1.91412 0.383806 3.38873 1.39131 4.18951L58.7413 49.502C59.7488 50.3028 61.2116 50.1172 62.006 49.1016C62.8004 48.086 62.6163 46.6114 61.6088 45.8106L52.8707 38.9063C52.89 38.8672 52.9094 38.8184 52.9288 38.7794C53.4326 37.6563 53.2291 36.338 52.4154 35.42L51.6985 34.6094C48.676 31.1719 47 26.7481 47 22.1485V20.3126C47 12.754 41.6719 6.44537 34.6001 5.00006V3.12506C34.6001 1.39655 33.2147 6.06426e-05 31.5001 6.06426e-05C29.7854 6.06426e-05 28.4001 1.39655 28.4001 3.12506V5.00006C24.2732 5.8399 20.7469 8.3399 18.5188 11.7676L4.25881 0.498107ZM39.8507 40.6251L16.0001 21.6895V22.1583C16.0001 26.7481 14.3241 31.1817 11.3016 34.6192L10.5847 35.4297C9.77099 36.3477 9.57724 37.6661 10.0713 38.7891C10.5654 39.9122 11.6794 40.6251 12.9001 40.6251H39.8507ZM35.8885 48.1739C37.051 47.002 37.7001 45.4102 37.7001 43.7501H31.5001H25.3001C25.3001 45.4102 25.9491 47.002 27.1116 48.1739C28.2741 49.3458 29.8532 50.0001 31.5001 50.0001C33.1469 50.0001 34.726 49.3458 35.8885 48.1739Z" fill="#005BAA"/>
</g>
<defs>
<clipPath id="clip0_17_974">
<rect width="62" height="50" fill="white" transform="translate(0.5)"/>
</clipPath>
</defs>
</svg>
