<svg width="18" height="18" viewBox="0 0 18 18" fill="none" xmlns="http://www.w3.org/2000/svg">
<mask id="mask0_28_254" style="mask-type:luminance" maskUnits="userSpaceOnUse" x="0" y="0" width="18" height="18">
<path d="M18 0H0V18H18V0Z" fill="white"/>
</mask>
<g mask="url(#mask0_28_254)">
<path d="M17.236 13.6367C17.1612 12.9592 16.7871 12.4323 16.1886 12.0559L13.4955 10.475C12.6726 10.0234 11.6253 10.1739 10.952 10.7762L10.6528 11.0773C9.2314 10.1739 7.81002 8.74366 6.91232 7.31339L7.21155 7.01228C7.88483 6.41007 8.03445 5.35618 7.5856 4.52813L6.01461 1.81815C5.71537 1.21593 5.1169 0.839542 4.44361 0.764265C3.84514 0.688988 3.17186 0.91482 2.723 1.36648L1.82529 2.26981C0.777968 3.32369 0.478732 4.75396 1.00239 6.03368C1.75049 7.76506 3.02224 10.3245 5.34132 12.6581C7.66041 14.9917 10.2039 16.3467 11.9245 17.0242C12.3734 17.1747 12.8222 17.25 13.1963 17.25C14.094 17.25 14.9917 16.8736 15.665 16.1961L16.5627 15.2928C17.0864 14.9164 17.3108 14.2389 17.236 13.6367Z" fill="white"/>
<path fill-rule="evenodd" clip-rule="evenodd" d="M12.2737 5.72686C11.8557 5.30881 11.208 5.15388 10.7374 5.31075C10.3444 5.44173 9.91968 5.22936 9.78869 4.83641C9.65771 4.44345 9.87008 4.01871 10.263 3.88772C11.3283 3.53262 12.5579 3.88966 13.3344 4.6662C14.1109 5.44274 14.468 6.67226 14.1129 7.73756C13.9819 8.13052 13.5571 8.34289 13.1642 8.21191C12.7712 8.08092 12.5589 7.65618 12.6898 7.26322C12.8467 6.79262 12.6918 6.14492 12.2737 5.72686Z" fill="white"/>
<path fill-rule="evenodd" clip-rule="evenodd" d="M14.2308 3.76935C12.8901 2.42864 10.9413 1.95687 9.19517 2.42699C8.7952 2.53467 8.38366 2.29773 8.27597 1.89775C8.16829 1.49778 8.40524 1.08625 8.80521 0.978562C11.0533 0.373309 13.5596 0.97691 15.2914 2.70869C17.0232 4.44046 17.6268 6.94682 17.0215 9.1949C16.9139 9.59488 16.5023 9.83182 16.1024 9.72414C15.7024 9.61645 15.4654 9.20492 15.5731 8.80494C16.0432 7.0588 15.5715 5.11005 14.2308 3.76935Z" fill="white"/>
</g>
</svg>
