<svg width="24" height="18" viewBox="0 0 24 18" fill="none" xmlns="http://www.w3.org/2000/svg">
<path d="M2.4 3.0625C2.4 1.75254 3.47625 0.6875 4.8 0.6875H19.2C20.5238 0.6875 21.6 1.75254 21.6 3.0625V12.5625H19.2V3.0625H4.8V12.5625H2.4V3.0625ZM0 14.4625C0 14.0691 0.3225 13.75 0.72 13.75H23.28C23.6775 13.75 24 14.0691 24 14.4625C24 16.0359 22.71 17.3125 21.12 17.3125H2.88C1.29 17.3125 0 16.0359 0 14.4625ZM10.5375 7.25586L9.375 8.40625L10.5375 9.55664C10.89 9.90547 10.89 10.4695 10.5375 10.8146C10.185 11.1598 9.615 11.1635 9.26625 10.8146L7.46625 9.0334C7.11375 8.68457 7.11375 8.12051 7.46625 7.77539L9.26625 5.99414C9.61875 5.64531 10.1888 5.64531 10.5375 5.99414C10.8863 6.34297 10.89 6.90703 10.5375 7.25215V7.25586ZM14.7375 5.99414L16.5375 7.77539C16.89 8.12422 16.89 8.68828 16.5375 9.0334L14.7375 10.8146C14.385 11.1635 13.815 11.1635 13.4663 10.8146C13.1175 10.4658 13.1138 9.90176 13.4663 9.55664L14.6288 8.40625L13.4663 7.25586C13.1138 6.90703 13.1138 6.34297 13.4663 5.99785C13.8188 5.65273 14.3888 5.64902 14.7375 5.99785V5.99414Z" fill="white"/>
</svg>
