<svg width="51" height="50" viewBox="0 0 51 50" fill="none" xmlns="http://www.w3.org/2000/svg">
<path d="M10.7637 19.7852C11.5156 17.6563 12.7363 15.6543 14.4551 13.9453C20.5586 7.8418 30.4512 7.8418 36.5547 13.9453L38.2246 15.625H34.875C33.1465 15.625 31.75 17.0215 31.75 18.75C31.75 20.4785 33.1465 21.875 34.875 21.875H45.7637H45.8027C47.5312 21.875 48.9277 20.4785 48.9277 18.75V7.8125C48.9277 6.08398 47.5312 4.6875 45.8027 4.6875C44.0742 4.6875 42.6777 6.08398 42.6777 7.8125V11.25L40.9687 9.53125C32.4238 0.986328 18.5762 0.986328 10.0312 9.53125C7.64844 11.9141 5.92969 14.7168 4.875 17.7148C4.29883 19.3457 5.1582 21.123 6.7793 21.6992C8.40039 22.2754 10.1875 21.416 10.7637 19.7949V19.7852ZM4.30859 28.252C3.82031 28.3984 3.35156 28.6621 2.9707 29.0527C2.58008 29.4434 2.31641 29.9121 2.17969 30.4199C2.15039 30.5371 2.12109 30.6641 2.10156 30.791C2.07227 30.957 2.0625 31.123 2.0625 31.2891V42.1875C2.0625 43.916 3.45898 45.3125 5.1875 45.3125C6.91602 45.3125 8.3125 43.916 8.3125 42.1875V38.7598L10.0312 40.4688C18.5762 49.0039 32.4238 49.0039 40.959 40.4688C43.3418 38.0859 45.0703 35.2832 46.125 32.2852C46.7012 30.6543 45.8418 28.877 44.2207 28.3008C42.5996 27.7246 40.8125 28.584 40.2363 30.2051C39.4844 32.334 38.2637 34.3359 36.5449 36.0449C30.4414 42.1484 20.5488 42.1484 14.4453 36.0449L14.4355 36.0352L12.7656 34.375H16.125C17.8535 34.375 19.25 32.9785 19.25 31.25C19.25 29.5215 17.8535 28.125 16.125 28.125H5.22656C5.07031 28.125 4.91406 28.1348 4.75781 28.1543C4.60156 28.1738 4.45508 28.2031 4.30859 28.252Z" fill="#005BAA"/>
</svg>
