<svg width="51" height="50" viewBox="0 0 51 50" fill="none" xmlns="http://www.w3.org/2000/svg">
<path d="M15.7931 37.5879L12.7755 34.5704C11.9454 33.7403 11.6524 32.5391 12.0235 31.4258C12.3165 30.5567 12.7071 29.4239 13.1759 28.1251H2.84384C2.004 28.1251 1.22275 27.6758 0.802829 26.9434C0.382907 26.211 0.392673 25.3126 0.82236 24.5899L5.94931 15.9473C7.21884 13.8087 9.51377 12.5001 11.9942 12.5001H20.0313C20.2657 12.1094 20.5001 11.7481 20.7345 11.3965C28.7325 -0.400335 40.6466 -0.79096 47.756 0.517634C48.8888 0.722712 49.7677 1.61138 49.9825 2.7442C51.2911 9.86334 50.8907 21.7676 39.1036 29.7657C38.7618 30.0001 38.3907 30.2344 38.0001 30.4688V38.5059C38.0001 40.9864 36.6915 43.2911 34.5528 44.5508L25.9103 49.6778C25.1876 50.1075 24.2892 50.1172 23.5567 49.6973C22.8243 49.2774 22.3751 48.5059 22.3751 47.6563V37.1876C20.9981 37.6661 19.797 38.0567 18.8888 38.3497C17.795 38.7012 16.6036 38.3985 15.7833 37.5879H15.7931ZM38.0001 16.4063C39.0361 16.4063 40.0297 15.9948 40.7622 15.2622C41.4948 14.5296 41.9063 13.5361 41.9063 12.5001C41.9063 11.4641 41.4948 10.4705 40.7622 9.73792C40.0297 9.00536 39.0361 8.59381 38.0001 8.59381C36.9641 8.59381 35.9705 9.00536 35.238 9.73792C34.5054 10.4705 34.0938 11.4641 34.0938 12.5001C34.0938 13.5361 34.5054 14.5296 35.238 15.2622C35.9705 15.9948 36.9641 16.4063 38.0001 16.4063Z" fill="#005BAA"/>
</svg>
