<svg width="24" height="18" viewBox="0 0 24 18" fill="none" xmlns="http://www.w3.org/2000/svg">
<path d="M12.0003 0.5C11.6965 0.5 11.3966 0.553115 11.1116 0.65555L0.593063 4.49877C0.236822 4.63156 0.000577196 4.97301 0.000577196 5.35619C0.000577196 5.73938 0.236822 6.08083 0.593063 6.21361L2.76426 7.00654C2.14928 7.98536 1.80053 9.1425 1.80053 10.3603V11.4264C1.80053 12.5039 1.39554 13.6155 0.964304 14.4919C0.72056 14.9851 0.443067 15.4707 0.120574 15.9184C0.000577198 16.0815 -0.033172 16.294 0.0343264 16.4875C0.101825 16.681 0.259321 16.8251 0.454316 16.8745L2.85426 17.4815C3.01175 17.5232 3.1805 17.4929 3.31925 17.4056C3.45799 17.3184 3.55549 17.1742 3.58549 17.0111C3.90798 15.3873 3.74674 13.9304 3.50674 12.8871C3.38675 12.3483 3.2255 11.7982 3.0005 11.2936V10.3603C3.0005 9.21459 3.383 8.13333 4.04673 7.26832C4.53047 6.68026 5.1567 6.20602 5.89169 5.91389L11.779 3.57306C12.0865 3.45165 12.4353 3.60341 12.5553 3.91451C12.6753 4.22561 12.5253 4.57844 12.2178 4.69985L6.33043 7.04068C5.86544 7.22658 5.4567 7.51113 5.12295 7.86016L11.1078 10.0455C11.3928 10.1479 11.6928 10.201 11.9965 10.201C12.3003 10.201 12.6003 10.1479 12.8853 10.0455L23.4075 6.21361C23.7638 6.08462 24 5.73938 24 5.35619C24 4.97301 23.7638 4.63156 23.4075 4.49877L12.889 0.65555C12.604 0.553115 12.304 0.5 12.0003 0.5ZM4.80046 14.7651C4.80046 16.1043 8.02538 17.4967 12.0003 17.4967C15.9752 17.4967 19.2001 16.1043 19.2001 14.7651L18.6264 9.24873L13.294 11.1988C12.8778 11.3506 12.439 11.4264 12.0003 11.4264C11.5615 11.4264 11.1191 11.3506 10.7066 11.1988L5.3742 9.24873L4.80046 14.7651Z" fill="white"/>
</svg>
