<svg width="58" height="57" viewBox="0 0 58 57" fill="none" xmlns="http://www.w3.org/2000/svg">
<path d="M29 0C12.9798 0 0 12.5812 0 28.1094C0 43.6376 12.9798 56.2188 29 56.2188C45.0202 56.2188 58 43.6376 58 28.1094C58 12.5812 45.0202 0 29 0ZM42.4476 19.1212C42.0149 23.5643 40.1206 34.3547 39.1617 39.3305C38.7524 41.4387 37.9573 42.1414 37.1855 42.2094C35.5016 42.3568 34.227 41.1327 32.5899 40.0899C30.0407 38.4691 28.5907 37.4603 26.1234 35.8735C23.2585 34.0486 25.1177 33.0399 26.7431 31.3964C27.1758 30.9657 34.5895 24.4257 34.7298 23.8363C34.7532 23.757 34.7649 23.485 34.5895 23.3376C34.4141 23.1903 34.1685 23.2469 33.9931 23.2809C33.7359 23.3338 29.6587 25.9445 21.7617 31.113C20.6079 31.8838 19.5594 32.2578 18.6161 32.2351C17.5754 32.2125 15.5875 31.6684 14.1024 31.2037C12.2899 30.637 10.8399 30.331 10.9685 29.3562C11.0309 28.8499 11.752 28.3323 13.1319 27.8034C21.5824 24.2368 27.2187 21.883 30.0407 20.742C38.0976 17.5004 39.7698 16.9336 40.8573 16.911C41.1028 16.911 41.629 16.9677 41.9798 17.2397C42.2088 17.4348 42.3547 17.7055 42.3891 17.9991C42.4523 18.3698 42.472 18.7462 42.4476 19.1212Z" fill="#2FA4DF"/>
</svg>
