<svg width="58" height="57" viewBox="0 0 58 57" fill="none" xmlns="http://www.w3.org/2000/svg">
<path d="M49.3129 8.16929C43.8884 2.89878 36.6643 0 28.9871 0C13.1406 0 0.245982 12.4986 0.245982 27.8584C0.245982 32.765 1.56652 37.5587 4.07812 41.7876L0 56.2188L15.2379 52.3412C19.4326 54.5624 24.158 55.7294 28.9741 55.7294H28.9871C44.8205 55.7294 58 43.2308 58 27.871C58 20.4295 54.7375 13.4398 49.3129 8.16929ZM28.9871 51.0361C24.6888 51.0361 20.4812 49.9193 16.8174 47.8111L15.95 47.3091L6.91339 49.6056L9.32143 41.0598L8.75179 40.1814C6.3567 36.492 5.10089 32.238 5.10089 27.8584C5.10089 15.0963 15.8205 4.70582 29 4.70582C35.3826 4.70582 41.3768 7.11519 45.8821 11.4947C50.3875 15.8743 53.158 21.6844 53.1451 27.871C53.1451 40.6457 42.1536 51.0361 28.9871 51.0361ZM42.0888 33.6936C41.3768 33.3423 37.8424 31.6607 37.1821 31.4348C36.5219 31.1964 36.0429 31.0835 35.5638 31.7862C35.0848 32.4889 33.7125 34.045 33.2853 34.5219C32.871 34.9862 32.4438 35.0489 31.7317 34.6975C27.5112 32.6521 24.7406 31.0458 21.9571 26.4153C21.2192 25.1855 22.6951 25.2734 24.0674 22.613C24.3004 22.1487 24.1839 21.7471 24.0027 21.3958C23.8214 21.0444 22.3844 17.6186 21.7888 16.2257C21.2062 14.8704 20.6107 15.0586 20.1705 15.0335C19.7563 15.0084 19.2772 15.0084 18.7982 15.0084C18.3192 15.0084 17.5424 15.1841 16.8821 15.8743C16.2219 16.577 14.3705 18.2586 14.3705 21.6844C14.3705 25.1102 16.9469 28.4231 17.2964 28.8874C17.6589 29.3517 22.3585 36.3791 29.5696 39.4034C34.1268 41.3108 35.9134 41.4739 38.192 41.1476C39.5772 40.9469 42.4384 39.4661 43.0339 37.8348C43.6295 36.2034 43.6295 34.8105 43.4482 34.5219C43.2799 34.2081 42.8009 34.0325 42.0888 33.6936Z" fill="#53D060"/>
</svg>
