<svg width="26" height="20" viewBox="0 0 26 20" fill="none" xmlns="http://www.w3.org/2000/svg">
<path d="M15.1206 2.03125C15.1206 2.84766 14.6169 3.55469 13.8937 3.875L18.2 7.5L22.4412 6.68359C22.2259 6.38281 22.1 6.01562 22.1 5.625C22.1 4.58984 22.9734 3.75 24.05 3.75C25.1266 3.75 26 4.58984 26 5.625C26 6.64062 25.1631 7.46484 24.115 7.5L19.5406 17.2773C19.1222 18.1758 18.1919 18.75 17.1681 18.75H8.83187C7.80812 18.75 6.88187 18.1719 6.45937 17.2773L1.885 7.5C0.836875 7.46484 0 6.64062 0 5.625C0 4.58984 0.873437 3.75 1.95 3.75C3.02656 3.75 3.9 4.58984 3.9 5.625C3.9 6.01953 3.77406 6.38281 3.55875 6.68359L7.8 7.5L12.1103 3.87109C11.3912 3.54688 10.8916 2.84375 10.8916 2.03125C10.8916 0.910156 11.8381 0 13.0041 0C14.17 0 15.1166 0.910156 15.1166 2.03125H15.1206Z" fill="#F27028"/>
</svg>
