<svg width="53" height="50" viewBox="0 0 53 50" fill="none" xmlns="http://www.w3.org/2000/svg">
<path d="M22.866 4.17053L19.193 5.54769C18.9007 5.65513 18.7059 5.93837 18.7059 6.25092C18.7059 6.56346 18.9007 6.84671 19.193 6.95414L22.866 8.3313L24.2397 12.0135C24.3469 12.3065 24.6294 12.5018 24.9412 12.5018C25.2529 12.5018 25.5355 12.3065 25.6426 12.0135L27.0164 8.3313L30.6893 6.95414C30.9816 6.84671 31.1765 6.56346 31.1765 6.25092C31.1765 5.93837 30.9816 5.65513 30.6893 5.54769L27.0164 4.17053L25.6426 0.488353C25.5355 0.195341 25.2529 0 24.9412 0C24.6294 0 24.3469 0.195341 24.2397 0.488353L22.866 4.17053ZM4.49136 38.6189C2.66949 40.4454 2.66949 43.4146 4.49136 45.2508L7.86232 48.6302C9.68419 50.4566 12.646 50.4566 14.4776 48.6302L51.6263 11.3786C53.4482 9.55218 53.4482 6.583 51.6263 4.74679L48.2553 1.37715C46.4335 -0.449285 43.4717 -0.449285 41.6401 1.37715L4.49136 38.6189ZM47.2129 8.06759L36.9831 18.323L34.7131 16.0473L44.9428 5.79186L47.2129 8.06759ZM0.730699 11.447C0.292279 11.613 0 12.033 0 12.5018C0 12.9707 0.292279 13.3906 0.730699 13.5567L6.23529 15.6273L8.30074 21.1457C8.46636 21.5852 8.88529 21.8782 9.35294 21.8782C9.82059 21.8782 10.2395 21.5852 10.4051 21.1457L12.4706 15.6273L17.9752 13.5567C18.4136 13.3906 18.7059 12.9707 18.7059 12.5018C18.7059 12.033 18.4136 11.613 17.9752 11.447L12.4706 9.37637L10.4051 3.85799C10.2395 3.41847 9.82059 3.12546 9.35294 3.12546C8.88529 3.12546 8.46636 3.41847 8.30074 3.85799L6.23529 9.37637L0.730699 11.447ZM35.0248 36.4507C34.5864 36.6167 34.2941 37.0367 34.2941 37.5055C34.2941 37.9743 34.5864 38.3943 35.0248 38.5603L40.5294 40.631L42.5949 46.1493C42.7605 46.5889 43.1794 46.8819 43.6471 46.8819C44.1147 46.8819 44.5336 46.5889 44.6993 46.1493L46.7647 40.631L52.2693 38.5603C52.7077 38.3943 53 37.9743 53 37.5055C53 37.0367 52.7077 36.6167 52.2693 36.4507L46.7647 34.38L44.6993 28.8617C44.5336 28.4221 44.1147 28.1291 43.6471 28.1291C43.1794 28.1291 42.7605 28.4221 42.5949 28.8617L40.5294 34.38L35.0248 36.4507Z" fill="#005BAA"/>
</svg>
